<mxfile host="drawio-plugin" modified="2022-09-22T11:11:27.322Z" agent="5.0 (Macintosh; Intel Mac OS X 10_15_7) AppleWebKit/537.36 (KHTML, like Gecko) Chrome/97.0.4692.45 Safari/537.36" etag="C5aJzLUCd6VgXlNsnavx" version="15.5.4" type="embed"><diagram id="V_rO0SnzEDLQo_ldmVY_" name="Sayfa -1"><mxGraphModel dx="367" dy="442" grid="1" gridSize="10" guides="1" tooltips="1" connect="1" arrows="1" fold="1" page="1" pageScale="1" pageWidth="827" pageHeight="1169" math="0" shadow="0"><root><mxCell id="0"/><mxCell id="1" parent="0"/><mxCell id="YRSygOGSL62guWr2-zjy-2" value="Services" style="rounded=0;whiteSpace=wrap;html=1;align=right;labelPosition=left;verticalLabelPosition=top;verticalAlign=bottom;fillColor=#f5f5f5;fontColor=#FFFFFF;strokeColor=#666666;" parent="1" vertex="1"><mxGeometry x="327" y="480" width="450" height="170" as="geometry"/></mxCell><mxCell id="YRSygOGSL62guWr2-zjy-15" style="edgeStyle=orthogonalEdgeStyle;rounded=0;orthogonalLoop=1;jettySize=auto;html=1;entryX=0;entryY=0.5;entryDx=0;entryDy=0;startArrow=classicThin;startFill=1;endArrow=classicThin;endFill=1;" parent="1" target="YRSygOGSL62guWr2-zjy-14" edge="1"><mxGeometry relative="1" as="geometry"><mxPoint x="444" y="560" as="sourcePoint"/></mxGeometry></mxCell><mxCell id="YRSygOGSL62guWr2-zjy-16" style="edgeStyle=orthogonalEdgeStyle;rounded=0;orthogonalLoop=1;jettySize=auto;html=1;entryX=1;entryY=0.5;entryDx=0;entryDy=0;startArrow=classicThin;startFill=1;endArrow=classicThin;endFill=1;" parent="1" target="YRSygOGSL62guWr2-zjy-14" edge="1"><mxGeometry relative="1" as="geometry"><mxPoint x="660" y="560" as="sourcePoint"/></mxGeometry></mxCell><mxCell id="YRSygOGSL62guWr2-zjy-5" value="Managment Services/Servers" style="rounded=0;whiteSpace=wrap;html=1;labelPosition=center;verticalLabelPosition=top;align=center;verticalAlign=bottom;fillColor=#e1d5e7;strokeColor=#9673a6;" parent="1" vertex="1"><mxGeometry x="160" y="230" width="320" height="210" as="geometry"/></mxCell><mxCell id="YRSygOGSL62guWr2-zjy-10" value="" style="edgeStyle=orthogonalEdgeStyle;rounded=0;orthogonalLoop=1;jettySize=auto;html=1;startArrow=classicThin;startFill=1;" parent="1" source="YRSygOGSL62guWr2-zjy-6" target="YRSygOGSL62guWr2-zjy-7" edge="1"><mxGeometry relative="1" as="geometry"/></mxCell><mxCell id="YRSygOGSL62guWr2-zjy-12" style="edgeStyle=orthogonalEdgeStyle;rounded=0;orthogonalLoop=1;jettySize=auto;html=1;entryX=0.5;entryY=1;entryDx=0;entryDy=0;startArrow=blockThin;startFill=1;" parent="1" source="YRSygOGSL62guWr2-zjy-6" target="YRSygOGSL62guWr2-zjy-9" edge="1"><mxGeometry relative="1" as="geometry"/></mxCell><mxCell id="YRSygOGSL62guWr2-zjy-17" style="edgeStyle=orthogonalEdgeStyle;rounded=0;orthogonalLoop=1;jettySize=auto;html=1;entryX=0.5;entryY=0;entryDx=0;entryDy=0;startArrow=classicThin;startFill=1;endArrow=classicThin;endFill=1;" parent="1" source="YRSygOGSL62guWr2-zjy-6" target="YRSygOGSL62guWr2-zjy-2" edge="1"><mxGeometry relative="1" as="geometry"/></mxCell><mxCell id="YRSygOGSL62guWr2-zjy-19" style="edgeStyle=orthogonalEdgeStyle;rounded=0;orthogonalLoop=1;jettySize=auto;html=1;entryX=0.5;entryY=1;entryDx=0;entryDy=0;startArrow=classicThin;startFill=1;endArrow=classicThin;endFill=1;" parent="1" source="YRSygOGSL62guWr2-zjy-6" target="YRSygOGSL62guWr2-zjy-18" edge="1"><mxGeometry relative="1" as="geometry"/></mxCell><mxCell id="YRSygOGSL62guWr2-zjy-6" value="Config S. (8000)" style="whiteSpace=wrap;html=1;aspect=fixed;fillColor=#d5e8d4;strokeColor=#82b366;fontColor=#000000;" parent="1" vertex="1"><mxGeometry x="280" y="340" width="80" height="80" as="geometry"/></mxCell><mxCell id="YRSygOGSL62guWr2-zjy-7" value="Eureka S. (8001)" style="whiteSpace=wrap;html=1;aspect=fixed;fillColor=#d5e8d4;strokeColor=#82b366;fontColor=#000000;" parent="1" vertex="1"><mxGeometry x="180" y="240" width="80" height="80" as="geometry"/></mxCell><mxCell id="YRSygOGSL62guWr2-zjy-13" style="edgeStyle=orthogonalEdgeStyle;rounded=0;orthogonalLoop=1;jettySize=auto;html=1;entryX=0.5;entryY=0;entryDx=0;entryDy=0;startArrow=classicThin;startFill=1;endArrow=classicThin;endFill=1;" parent="1" source="YRSygOGSL62guWr2-zjy-8" target="YRSygOGSL62guWr2-zjy-6" edge="1"><mxGeometry relative="1" as="geometry"/></mxCell><mxCell id="YRSygOGSL62guWr2-zjy-8" value="Admin S.(8003)" style="whiteSpace=wrap;html=1;aspect=fixed;fillColor=#d5e8d4;strokeColor=#82b366;fontColor=#000000;" parent="1" vertex="1"><mxGeometry x="280" y="240" width="80" height="80" as="geometry"/></mxCell><mxCell id="YRSygOGSL62guWr2-zjy-9" value="Auth S." style="whiteSpace=wrap;html=1;aspect=fixed;fillColor=#e3c800;strokeColor=#B09500;fontColor=#000000;" parent="1" vertex="1"><mxGeometry x="384" y="240" width="80" height="80" as="geometry"/></mxCell><mxCell id="YRSygOGSL62guWr2-zjy-14" value="Parent S." style="rounded=0;whiteSpace=wrap;html=1;fillColor=#d5e8d4;strokeColor=#82b366;fontColor=#000000;" parent="1" vertex="1"><mxGeometry x="504" y="500" width="96" height="50" as="geometry"/></mxCell><mxCell id="YRSygOGSL62guWr2-zjy-18" value="API Gateway (8002)" style="rounded=0;whiteSpace=wrap;html=1;labelPosition=center;verticalLabelPosition=bottom;align=center;verticalAlign=top;fillColor=#dae8fc;strokeColor=#6c8ebf;" parent="1" vertex="1"><mxGeometry x="620" y="150" width="170" height="110" as="geometry"/></mxCell><mxCell id="YRSygOGSL62guWr2-zjy-23" style="edgeStyle=orthogonalEdgeStyle;rounded=0;orthogonalLoop=1;jettySize=auto;html=1;entryX=0.5;entryY=0;entryDx=0;entryDy=0;startArrow=classicThin;startFill=1;endArrow=classicThin;endFill=1;" parent="1" source="YRSygOGSL62guWr2-zjy-20" target="YRSygOGSL62guWr2-zjy-7" edge="1"><mxGeometry relative="1" as="geometry"><Array as="points"><mxPoint x="220" y="180"/></Array></mxGeometry></mxCell><mxCell id="YRSygOGSL62guWr2-zjy-20" value="Circuit Breaker" style="rounded=0;whiteSpace=wrap;html=1;fillColor=#d5e8d4;strokeColor=#82b366;fontColor=#000000;" parent="1" vertex="1"><mxGeometry x="660" y="160" width="90" height="30" as="geometry"/></mxCell><mxCell id="YRSygOGSL62guWr2-zjy-24" style="edgeStyle=orthogonalEdgeStyle;rounded=0;orthogonalLoop=1;jettySize=auto;html=1;entryX=1;entryY=0.5;entryDx=0;entryDy=0;startArrow=classicThin;startFill=1;endArrow=classicThin;endFill=1;" parent="1" source="YRSygOGSL62guWr2-zjy-21" target="YRSygOGSL62guWr2-zjy-9" edge="1"><mxGeometry relative="1" as="geometry"/></mxCell><mxCell id="YRSygOGSL62guWr2-zjy-21" value="Auth." style="rounded=0;whiteSpace=wrap;html=1;fillColor=#d5e8d4;strokeColor=#82b366;fontColor=#000000;" parent="1" vertex="1"><mxGeometry x="660" y="200" width="90" height="30" as="geometry"/></mxCell><mxCell id="YRSygOGSL62guWr2-zjy-25" value="Request" style="shape=flexArrow;endArrow=classic;html=1;rounded=0;entryX=0.5;entryY=0;entryDx=0;entryDy=0;fillColor=#fa6800;strokeColor=#C73500;" parent="1" target="YRSygOGSL62guWr2-zjy-18" edge="1"><mxGeometry x="-0.3333" y="5" width="50" height="50" relative="1" as="geometry"><mxPoint x="705" y="90" as="sourcePoint"/><mxPoint x="720" y="-30" as="targetPoint"/><mxPoint as="offset"/></mxGeometry></mxCell><mxCell id="2" value="citizenService" style="rounded=0;whiteSpace=wrap;html=1;fillColor=#d5e8d4;strokeColor=#82b366;fontColor=#000000;" vertex="1" parent="1"><mxGeometry x="492" y="560" width="120" height="60" as="geometry"/></mxCell></root></mxGraphModel></diagram></mxfile>